<?xml version="1.0" standalone="no"?><!DOCTYPE svg PUBLIC "-//W3C//DTD SVG 1.1//EN" "http://www.w3.org/Graphics/SVG/1.1/DTD/svg11.dtd"><svg t="1544002428407" class="icon" style="" viewBox="0 0 1024 1024" version="1.1" xmlns="http://www.w3.org/2000/svg" p-id="1814" xmlns:xlink="http://www.w3.org/1999/xlink" width="200" height="200"><defs><style type="text/css"></style></defs><path d="M512 1024C229.2224 1024 0 794.7776 0 512S229.2224 0 512 0s512 229.2224 512 512-229.2224 512-512 512z m-80.896-312.9088c7.8592 0 15.4112-3.1488 20.9152-8.7552l335.744-338.5088a30.0288 30.0288 0 0 0 0-42.24 29.44 29.44 0 0 0-41.6256-0.2048l-0.2304 0.2048-314.88 317.44-152.96-154.24a29.44 29.44 0 0 0-41.6256-0.2048l-0.2304 0.2048a30.08 30.08 0 0 0 0 42.24l173.952 175.36c5.5552 5.5808 13.0816 8.7296 20.9408 8.704z" p-id="1815" fill="#1296db"></path></svg>