<?xml version="1.0" standalone="no"?><!DOCTYPE svg PUBLIC "-//W3C//DTD SVG 1.1//EN" "http://www.w3.org/Graphics/SVG/1.1/DTD/svg11.dtd"><svg t="1555405948903" class="icon" style="" viewBox="0 0 1024 1024" version="1.1" xmlns="http://www.w3.org/2000/svg" p-id="3817" xmlns:xlink="http://www.w3.org/1999/xlink" width="200" height="200"><defs><style type="text/css"></style></defs><path d="M895.849 339.188v345.624h-603.91L129.928 512l162.011-172.812h603.91m4.797-64H289.863a59.21 59.21 0 0 0-43.192 18.711L80.163 471.508c-21.348 22.772-21.348 58.213 0 80.985l166.508 177.609a59.208 59.208 0 0 0 43.192 18.711h610.783c32.561 0 59.203-26.642 59.203-59.203V334.391c0-32.561-26.643-59.203-59.203-59.203z" p-id="3818" fill="#000000"></path><path d="M706.666 370.904c-7.979 0-15.959 3.043-22.04 9.13l-93.683 93.686-93.683-93.686c-6.082-6.087-14.061-9.13-22.04-9.13-7.979 0-15.959 3.043-22.04 9.13-12.176 12.17-12.176 31.911 0 44.081l93.684 93.682-93.684 93.683c-12.176 12.17-12.176 31.91 0 44.077 6.081 6.092 14.065 9.135 22.04 9.135 7.977 0 15.959-3.042 22.04-9.135l93.683-93.683 93.683 93.683c6.081 6.092 14.064 9.135 22.04 9.135 7.975 0 15.959-3.042 22.04-9.135 12.176-12.167 12.176-31.907 0-44.077l-93.684-93.683 93.684-93.682c12.176-12.17 12.176-31.911 0-44.081-6.081-6.087-14.06-9.13-22.04-9.13z" p-id="3819" fill="#000000"></path></svg>