<?xml version="1.0" standalone="no"?><!DOCTYPE svg PUBLIC "-//W3C//DTD SVG 1.1//EN" "http://www.w3.org/Graphics/SVG/1.1/DTD/svg11.dtd"><svg t="1541474243533" class="icon" style="" viewBox="0 0 1024 1024" version="1.1" xmlns="http://www.w3.org/2000/svg" p-id="1560" xmlns:xlink="http://www.w3.org/1999/xlink" width="200" height="200"><defs><style type="text/css"></style></defs><path d="M512 352c-88.008 0-160.002 72-160.002 160 0 88.008 71.994 160 160.002 160 88.01 0 159.998-71.992 159.998-160C671.998 424 600.01 352 512 352zM893.876 469.334c-19.21-177.062-162.148-320-339.21-339.198L554.666 64l-85.332 0 0 66.134c-177.062 19.198-320 162.136-339.208 339.198L64 469.332l0 85.334 66.124 0c19.208 177.062 162.144 320 339.208 339.208L469.332 960l85.332 0 0-66.124c177.062-19.208 320-162.146 339.21-339.208L960 554.668l0-85.334L893.876 469.334zM512 810.666c-164.274 0-298.668-134.396-298.668-298.666 0-164.272 134.394-298.666 298.668-298.666 164.27 0 298.664 134.396 298.664 298.666C810.664 676.27 676.27 810.666 512 810.666z" p-id="1561" fill="#8a8a8a"></path></svg>