<?xml version="1.0" standalone="no"?><!DOCTYPE svg PUBLIC "-//W3C//DTD SVG 1.1//EN" "http://www.w3.org/Graphics/SVG/1.1/DTD/svg11.dtd"><svg t="1541128890028" class="icon" style="" viewBox="0 0 1024 1024" version="1.1" xmlns="http://www.w3.org/2000/svg" p-id="2352" xmlns:xlink="http://www.w3.org/1999/xlink" width="200" height="200"><defs><style type="text/css"></style></defs><path d="M369.846908 668.691715c-31.274284 6.16542-67.219961 6.997368-67.219961 6.997368 5.491061-24.339338 10.126638-52.559053 29.859052-72.92387l98.996688-19.358907L369.846908 668.691715 369.846908 668.691715 369.846908 668.691715zM338.96762 287.961434l38.842657 3.070942 0.276293 9.634428-49.112558 0 0 1.011027c0 37.877679-30.820959 68.625984-68.816319 68.625984-37.998429 0-68.819388-30.749328-68.819388-68.625984 0-1.709945 0.062422-3.465938 0.194428-5.182023l-13.936407 0c3.5345-41.74066 38.572504-74.458829 81.265862-74.458829C298.621726 222.036979 331.726705 250.41326 338.96762 287.961434L338.96762 287.961434 338.96762 287.961434zM62.385351 570.504462 73.118809 895.025557l127.240963 0 0-36.542264-51.931766-6.341429 40.596604-263.49009 66.066695-78.632895 66.976414 31.470759 71.677483 8.909927c-37.009915 9.299807-72.052013 20.273742-105.988939 33.5757l-45.12985 118.463042-29.995151 4.259 17.658172 117.523647 174.457334-0.137123c5.27105 7.135514 11.040451 13.868869 17.314341 20.083407 31.284517 31.271214 74.492598 50.517557 122.238019 50.517557 47.731094 0 90.957595-19.247366 122.227786-50.517557 6.341429-6.27389 12.199856-13.080923 17.470907-20.324908l274.705526-0.217964L958.703343 500.54204l-44.00012 0.503467c16.107863-9.568936 30.376844-18.23941 44.00012-26.514887l0-82.217537L790.037922 495.779573c-89.89131-132.731-198.627826-260.461103-332.050582-369.755322-6.076392 3.467985-12.169157 6.933923-18.23327 10.400884l258.876002 368.526331c-90.375334 8.226359-168.276564 17.399275-238.46002 30.810726l2.75167-14.902408-120.517841-40.117696-105.361653-92.202958-102.398158-2.369977L62.385351 570.504462 62.385351 570.504462 62.385351 570.504462zM603.257935 663.425781c15.090697 15.09479 24.425296 35.901675 24.425296 58.857503 0 22.99983-9.334599 43.781132-24.425296 58.818617-15.089673 15.006785-35.930327 24.378224-58.951647 24.378224-23.036669 0-43.877323-9.371438-58.972113-24.378224-15.086603-15.036461-24.426319-35.815717-24.426319-58.818617 0-22.950711 9.339716-43.760666 24.426319-58.857503 15.09479-15.012925 35.936467-24.317848 58.972113-24.317848C567.326585 639.107933 588.172355 648.412856 603.257935 663.425781L603.257935 663.425781zM603.257935 663.425781" p-id="2353" fill="#2cb9ff"></path></svg>