<?xml version="1.0" standalone="no"?><!DOCTYPE svg PUBLIC "-//W3C//DTD SVG 1.1//EN" "http://www.w3.org/Graphics/SVG/1.1/DTD/svg11.dtd"><svg t="1539312777409" class="icon" style="" viewBox="0 0 1024 1024" version="1.1" xmlns="http://www.w3.org/2000/svg" p-id="1744" xmlns:xlink="http://www.w3.org/1999/xlink" width="200" height="200" fill='#666'><defs><style type="text/css"></style></defs><path d="M563.779 585.419l-98.34 0 0 196.369-98.337 0L367.102 290.817l196.677 0c97.11 0 144.38 67.435 144.38 147.25 0 79.817-37.245 147.252-134.455 147.252l-9.925 0L563.779 585.419zM511.999 62.112c-248.862 0-450.551 201.382-450.551 449.936 0 248.454 201.689 449.939 450.551 449.939 248.859 0 450.549-201.484 450.549-449.939C962.548 263.494 760.858 62.112 511.999 62.112zM563.779 388.949l-98.34 0 0 98.235 98.34 0c41.54 0 49.115-10.847 49.115-49.117s2.355-49.117-39.295-49.117L563.779 388.95z" p-id="1745" fill='#2cb9ff'></path></svg>