<?xml version="1.0" standalone="no"?><!DOCTYPE svg PUBLIC "-//W3C//DTD SVG 1.1//EN" "http://www.w3.org/Graphics/SVG/1.1/DTD/svg11.dtd"><svg t="1540805578570" class="icon" style="" viewBox="0 0 1024 1024" version="1.1" xmlns="http://www.w3.org/2000/svg" p-id="2690" xmlns:xlink="http://www.w3.org/1999/xlink" width="200" height="200"><defs><style type="text/css"></style></defs><path d="M914.562 810.193 586.548 810.193c7.921 0 14.444-6.523 13.979-14.91l-9.318-119.277c-0.467-8.386-7.921-14.909-15.842-14.909L448.634 661.097c-7.921 0-15.375 6.523-15.841 14.909l-9.319 119.277c-0.466 8.387 6.057 14.91 13.978 14.91L109.439 810.193c-17.705 0-21.433-20.501-21.433-34.013 0-18.637 5.125-37.274 12.114-54.048l194.292-486.428c4.659-11.647 17.239-21.898 29.819-21.898l157.949 0c-7.921 0-15.375 6.523-15.841 14.91l-6.989 89.458c-0.466 8.387 5.591 14.909 13.978 14.909l77.343 0c8.387 0 14.443-6.522 13.978-14.909l-6.988-89.458c-0.466-8.387-7.921-14.91-15.842-14.91l157.949 0c12.58 0 25.16 10.251 29.819 21.898L923.88 722.133c6.988 16.773 12.113 35.411 12.113 54.048C935.993 789.692 932.267 810.193 914.562 810.193zM582.354 556.729l-11.182-149.096c-0.466-8.387-7.921-14.91-15.842-14.91l-86.662 0c-7.921 0-15.376 6.523-15.842 14.91l-11.182 149.096 0 1.864c-0.466 7.455 6.523 13.046 13.512 13.046l113.686 0c6.989 0 13.979-5.591 13.512-13.046L582.354 556.729z" p-id="2691" fill="#8a8a8a"></path></svg>